HIERARCHY
ROOT Hips
{
  OFFSET 263.056 91.6644 -274.608
  CHANNELS 6 Xposition Yposition Zposition Zrotation Xrotation Yrotation
  JOINT LeftUpLeg
  {
    OFFSET 8.64259 1.95398 -2.38835
    CHANNELS 3 Zrotation Xrotation Yrotation
    JOINT LeftLeg
    {
      OFFSET 43.7702 0 0
      CHANNELS 3 Zrotation Xrotation Yrotation
      JOINT LeftFoot
      {
        OFFSET 40.6238 0 0
        CHANNELS 3 Zrotation Xrotation Yrotation
        JOINT LeftToeBase
        {
          OFFSET 12.7242 0 0
          CHANNELS 3 Zrotation Xrotation Yrotation
          End Site
          {
            OFFSET 0 0 0
          }
        }
      }
    }
  }
  JOINT RightUpLeg
  {
    OFFSET -8.2249 1.95398 -2.59336
    CHANNELS 3 Zrotation Xrotation Yrotation
    JOINT RightLeg
    {
      OFFSET 43.5653 0 0
      CHANNELS 3 Zrotation Xrotation Yrotation
      JOINT RightFoot
      {
        OFFSET 40.6238 0 0
        CHANNELS 3 Zrotation Xrotation Yrotation
        JOINT RightToeBase
        {
          OFFSET 12.7242 0 0
          CHANNELS 3 Zrotation Xrotation Yrotation
          End Site
          {
            OFFSET 0 0 0
          }
        }
      }
    }
  }
  JOINT Spine
  {
    OFFSET 0.165834 0.87714 6.61349
    CHANNELS 3 Zrotation Xrotation Yrotation
    JOINT Spine1
    {
      OFFSET 7.38963 1.71661e-005 0
      CHANNELS 3 Zrotation Xrotation Yrotation
      JOINT Spine2
      {
        OFFSET 11.9445 1.14441e-005 0
        CHANNELS 3 Zrotation Xrotation Yrotation
        JOINT Spine3
        {
          OFFSET 14.7254 4.19617e-005 0
          CHANNELS 3 Zrotation Xrotation Yrotation
          JOINT Spine4
          {
            OFFSET 10.9679 0 0
            CHANNELS 3 Zrotation Xrotation Yrotation
            JOINT RightShoulder
            {
              OFFSET 2.46616 -1.6653 3.69651
              CHANNELS 3 Zrotation Xrotation Yrotation
              JOINT RightArm
              {
                OFFSET 13.0012 0 0
                CHANNELS 3 Zrotation Xrotation Yrotation
                JOINT RightForeArm
                {
                  OFFSET 28.7848 1.52588e-005 0
                  CHANNELS 3 Zrotation Xrotation Yrotation
                  JOINT RightHand
                  {
                    OFFSET 26.5688 1.52588e-005 0
                    CHANNELS 3 Zrotation Xrotation Yrotation
                    End Site
                    {
                      OFFSET 0 0 0
                    }
                  }
                }
              }
            }
            JOINT LeftShoulder
            {
              OFFSET 2.38034 -1.29275 -3.7523
              CHANNELS 3 Zrotation Xrotation Yrotation
              JOINT LeftArm
              {
                OFFSET 16.3182 6.10352e-005 0
                CHANNELS 3 Zrotation Xrotation Yrotation
                JOINT LeftForeArm
                {
                  OFFSET 27.0901 0 0
                  CHANNELS 3 Zrotation Xrotation Yrotation
                  JOINT LeftHand
                  {
                    OFFSET 24.5451 1.52588e-005 0
                    CHANNELS 3 Zrotation Xrotation Yrotation
                    End Site
                    {
                      OFFSET 0 0 0
                    }
                  }
                }
              }
            }
            JOINT Neck
            {
              OFFSET 5.0226 -0.0266342 0
              CHANNELS 3 Zrotation Xrotation Yrotation
              JOINT Head
              {
                OFFSET 6.69364 2.86102e-005 0
                CHANNELS 3 Zrotation Xrotation Yrotation
                End Site
                {
                  OFFSET 0 0 0
                }
              }
            }
          }
        }
      }
    }
  }
}
MOTION
Frames:	15
Frame Time:	0.0416667
-225.989 58.5326 -199.136 84.9892 -12.7888 91.6469 176.955 21.5088 103.391 -100.03 25.7022 1.20698 48.3638 2.63724 15.9841 55.5488 62.1469 47.2579 114.664 63.3034 131.46 -112.528 11.6904 -3.55384 87.1228 -12.3037 -6.24424 65.0889 2.41378 0.563383 1.03811 11.8292 -91.5745 3.22396 1.44942 -3.06912 -8.44993 1.313 -3.12986 -30.9708 2.30455 -2.49213 -10.9582 2.30455 -2.49213 97.7386 -24.6299 -92.0116 26.6249 -12.6988 -20.4427 -13.872 -22.8288 -46.7749 29.8059 -5.69585 -20.8591 -82.7378 -18.6109 85.3132 -53.1511 -8.36641 2.95814 4.10372 -1.66019 -84.6483 34.5241 -1.48763 -8.55635 17.8918 -19.3079 4.36218 20.1782 -20.8704 -6.0435 
-225.607 59.6257 -199.512 83.2266 -10.0021 94.2806 173.556 21.8641 105.578 -98.617 24.6135 2.20319 50.7443 4.72982 15.4009 43.3947 66.4347 67.8403 111.937 60.0824 130.942 -110.015 9.40492 -2.87867 89.0903 -12.8947 -6.10624 56.6549 4.42764 14.2486 0.696873 10.8946 -92.2858 5.06909 0.450131 -4.49976 -6.60962 0.251876 -4.51518 -29.0898 1.78051 -4.15755 -9.07721 1.78053 -4.15756 87.8829 -31.8424 -110.158 9.96802 -21.6593 -1.87311 -1.40983 -18.5421 -47.7062 6.97909 -1.23751 -16.274 -93.4855 -32.2933 67.5976 -31.6453 -23.8524 18.4701 -0.316682 1.80936 -109.688 36.3753 2.73072 3.6796 12.7953 -18.3646 8.02313 20.2412 -20.7651 -5.73064 
-224.612 61.0201 -199.224 84.1495 -11.8151 95.5387 174.938 18.3514 104.629 -97.0872 24.0614 2.72339 74.5104 20.5662 2.74469 32.4525 27.4221 91.9791 117.318 57.6565 126.632 -108.037 7.78183 -2.53709 89.9631 -12.919 -5.9624 53.1669 3.70066 14.1672 0.719679 10.5055 -92.3477 5.84856 0.453966 -4.62882 -5.83063 0.250017 -4.64427 -28.3077 1.82287 -4.27959 -8.29503 1.82288 -4.27959 80.9181 -38.2978 -119.664 4.87523 -28.1651 8.8416 -4.19134 -14.3487 -52.2843 -3.65123 -0.253298 -2.71647 -98.5668 -37.1395 60.964 -18.1826 -32.1366 24.9186 -2.80137 8.381 -121.772 35.1968 2.64406 3.65348 8.88567 -17.8713 6.72893 20.5828 -19.4948 -3.78882 
-222.504 61.3284 -197.235 83.1532 -17.0556 91.4351 -179.715 14.8021 99.9347 -90.9359 23.4237 2.44938 52.1433 7.9956 20.9767 52.645 55.8981 47.5552 123.794 61.3422 126.453 -109.602 7.59658 -3.77069 85.656 -11.4962 -5.915 58.1324 3.96404 10.9258 0.876558 9.9828 -91.8031 6.91051 0.978695 -3.594 -4.76513 0.819682 -3.63353 -27.2713 2.01311 -3.13448 -7.25865 2.01311 -3.13447 81.9744 -38.1141 -117.937 8.82091 -28.0576 10.3097 -8.88274 -16.1411 -53.5804 -7.60117 -0.62401 3.47182 -98.038 -37.1188 61.8491 -16.8553 -34.3483 20.8162 0.415901 7.90499 -127.662 34.7313 2.71442 3.9744 5.10724 -17.046 5.43897 20.5251 -18.066 -2.45382 
-219.584 61.9841 -194.057 78.4839 -21.268 84.9338 -175.512 12.4066 95.2061 -82.9363 22.255 1.68315 52.0962 7.3409 21.6992 52.762 54.7029 46.237 128.169 66.4813 127.165 -111.386 6.63846 -4.42301 81.5077 -10.3245 -5.87027 61.5449 4.58614 11.0814 0.917379 9.16833 -91.2192 8.54519 1.29138 -2.49295 -3.12759 1.18042 -2.54734 -25.6546 1.98074 -1.98987 -5.64196 1.98079 -1.98985 83.1815 -38.5077 -115.702 11.6725 -25.8415 11.1406 -10.2863 -14.4616 -54.0928 -8.38042 -0.65581 3.03314 -98.2513 -36.569 61.2453 -15.2318 -37.8978 18.8466 1.31738 8.68457 -131.155 34.4633 2.20322 2.51066 1.94873 -15.8598 4.31506 20.9195 -16.2175 -0.208942 
-215.988 63.2448 -191.247 77.6859 -21.2864 83.4215 -175.158 6.37337 94.539 -74.2316 22.6905 2.16816 53.148 7.31436 20.7474 52.68 53.5339 45.3778 134.525 65.243 119.94 -111.537 4.47666 -4.16844 78.6328 -9.24297 -5.64814 64.7155 5.68324 13.1959 0.469422 8.74975 -91.1526 9.37328 0.418185 -2.31667 -2.29967 0.315876 -2.33282 -24.8215 1.09496 -2.08407 -4.80883 1.09499 -2.08406 83.6701 -39.0616 -114.628 14.504 -23.6989 12.4612 -10.5929 -12.7665 -55.0412 -11.1678 -0.719691 1.78524 -97.1717 -35.2952 62.4964 -12.6487 -43.0537 20.5049 1.35878 10.7834 -134.643 31.4926 2.2986 3.46165 0.466518 -14.3943 4.66089 19.9883 -14.7005 0.38051 
-212.065 64.5514 -187.909 75.0887 -21.4533 80.7898 -175.097 0.979295 94.2522 -63.0375 24.9364 2.53285 51.7483 3.39735 17.1934 60.1537 57.3652 35.2173 141.114 63.9964 113.546 -110.666 0.975354 -3.87661 76.2062 -8.21466 -5.23839 69.4582 5.74453 10.7087 0.121191 8.32401 -91.0142 10.2195 -0.22162 -1.99376 -1.45296 -0.309155 -1.9821 -23.9759 0.387698 -1.96823 -3.96329 0.387692 -1.96824 85.1578 -39.4762 -111.92 17.2466 -22.9759 12.4401 -8.8457 -9.48827 -58.215 -14.631 -1.01077 3.15417 -95.5962 -33.9994 64.6525 -13.385 -42.2892 19.2337 2.71416 9.39351 -137.066 30.0975 2.33742 3.95781 0.909435 -13.1606 3.56103 19.8242 -13.0108 2.051 
-207.723 66.1625 -184.194 72.5786 -21.346 78.512 -175.148 -4.36468 94.4129 -49.9646 27.2363 3.06966 49.5729 -2.28104 7.88923 53.0272 54.8994 45.8781 147.88 61.0438 106.947 -108.346 -2.63649 -3.25343 74.2781 -7.06856 -4.78453 74.059 5.19243 6.66658 -0.148783 7.97942 -90.9526 10.9052 -0.736694 -1.82475 -0.766823 -0.816258 -1.79058 -23.2919 -0.154342 -1.96174 -3.2792 -0.154326 -1.96174 85.8601 -40.8991 -110.19 20.5016 -20.9202 14.601 -10.2249 -6.78239 -62.6725 -17.0959 -1.01664 1.97871 -95.0678 -34.6201 65.8392 -15.3544 -35.1113 17.4099 4.36435 4.86784 -137.694 26.6289 2.08837 4.0349 3.006 -12.0045 3.75485 17.811 -11.8288 2.86659 
-203.671 67.5901 -180.123 69.3994 -21.9948 75.1531 -175.062 -7.94885 93.7514 -37.7836 29.1146 2.55079 41.8405 -10.386 -2.57318 41.933 44.2525 63.1142 156.79 59.0072 100.669 -105.357 -3.06482 -2.55095 74.1444 -6.88341 -4.64393 74.8312 6.6428 10.4342 -0.195046 7.52786 -90.7313 11.8117 -0.731659 -1.38026 0.140319 -0.791721 -1.34674 -22.3893 -0.283089 -1.53631 -2.37669 -0.283078 -1.53632 86.5932 -43.3473 -108.103 23.6622 -18.2937 17.2035 -7.91446 -4.90033 -65.4042 -18.2098 -0.848961 0.409271 -94.6993 -35.1707 66.7059 -21.7552 -20.7486 15.5044 7.26901 -2.54561 -132.967 23.0515 1.8862 4.37665 2.90212 -11.5671 2.4754 16.7922 -10.9007 4.68979 
-200.054 68.9404 -176.358 67.1416 -21.9579 72.6906 -175.18 -7.88053 93.6386 -32.5612 29.9032 1.75936 31.105 -17.4198 -9.20567 44.6587 34.043 45.8397 162.47 54.9221 96.8327 -101.063 -1.05105 -1.7925 76.4857 -7.68106 -3.48755 75.4768 6.86596 10.7401 -0.323263 7.28768 -90.5722 12.2933 -0.913802 -1.03906 0.622263 -0.958625 -0.997837 -21.9107 -0.559283 -1.26562 -1.89808 -0.559303 -1.26563 85.5721 -45.8724 -108.899 25.5761 -14.9948 18.8148 -4.91882 -1.67255 -68.1128 -22.4588 -1.14459 0.832465 -94.5848 -36.4678 67.4131 -28.4744 -7.79623 16.7248 10.9186 -7.36971 -122.303 19.9656 1.73382 4.83812 3.21303 -10.7337 2.73667 16.6697 -10.1431 4.63789 
-196.431 71.2364 -172.604 66.0275 -21.5126 71.4846 -174.964 -0.203346 94.328 -43.2486 24.811 1.3221 34.9916 -15.3718 -5.64803 39 12.7156 11.8384 165.769 48.6603 94.5757 -94.1575 -0.791676 -0.80658 78.0574 -7.67863 -3.45594 75.0641 6.16446 8.99282 -0.315678 7.38882 -90.4962 12.0921 -0.861989 -0.89531 0.421183 -0.900551 -0.85651 -22.1127 -0.553071 -1.11295 -2.10004 -0.553064 -1.11296 84.433 -49.0812 -109.579 24.3243 -12.3439 17.4946 -4.65605 -0.637809 -71.9337 -21.3014 -1.13132 1.00865 -95.4528 -38.3896 66.6891 -33.7284 -0.578718 16.8261 14.5095 -8.8595 -105.959 16.9009 1.33499 4.00986 5.79033 -10.9413 2.40806 16.469 -10.2778 4.85278 
-193.224 73.7582 -169.255 65.6026 -21.7949 70.5251 -174.682 8.59165 93.3968 -55.3149 20.1246 0.563851 39.6918 -12.2497 -1.18432 44.2041 18.4372 6.97445 168.785 42.4375 92.7178 -86.5174 0.0767229 -0.213614 77.9291 -6.92799 -3.10569 73.6371 6.84005 11.5889 -0.0920285 7.66409 -90.4452 11.5436 -0.391257 -0.846455 -0.127592 -0.428127 -0.828428 -22.6606 -0.118791 -0.924914 -2.64793 -0.118799 -0.924909 83.3054 -50.1195 -110.931 23.4241 -9.55642 15.2829 -4.52794 1.79092 -79.0968 -24.9457 -1.19993 0.370995 -96.7532 -40.0995 65.2135 -36.5959 4.67355 15.5015 13.8101 -0.458683 -87.6881 16.4012 1.25483 3.73401 8.6908 -11.4269 3.81918 15.5738 -11.297 3.69162 
-190.071 76.1434 -166.07 65.2132 -22.6359 70.0124 -174.04 19.0344 92.5482 -66.4045 17.8652 -0.219245 43.9595 -9.02997 3.74508 45.287 20.2388 8.96026 170.348 35.1443 91.8356 -77.0545 0.57032 0.721671 76.8151 -6.26125 -2.87091 75.5053 6.94984 10.9541 0.288789 7.84548 -90.4012 11.1837 0.388324 -0.836722 -0.487477 0.351076 -0.853003 -23.0216 0.621808 -0.681352 -3.00891 0.621824 -0.681347 83.3431 -50.2341 -110.835 22.084 -8.13882 11.8206 -6.80418 0.775053 -90.1789 -19.1226 -1.02391 1.05015 -97.6103 -40.2816 63.898 -39.5249 9.76147 15.5056 8.0668 0.155914 -68.4759 19.511 1.07637 1.66059 9.15159 -12.4779 4.47344 15.2945 -12.5752 3.07374 
-186.81 78.4939 -162.633 64.4458 -24.3063 69.0597 -172.092 29.6132 91.0056 -74.6753 12.9756 -0.64091 50.3065 -4.24384 4.97775 44.8616 18.9954 5.85449 173.286 26.5672 91.1193 -65.2197 -2.27022 0.226861 77.4069 -6.83082 -3.10636 72.9494 5.68943 8.58632 0.638544 8.00436 -90.2851 10.8687 1.13967 -0.674092 -0.801914 1.1089 -0.723618 -23.3408 1.28957 -0.300368 -3.32811 1.28956 -0.300375 84.7699 -48.1806 -109.371 19.9849 -7.93902 5.44132 -12.4522 3.03187 -100.775 -24.0246 -1.26607 1.10386 -98.2017 -40.1466 62.8879 -42.3897 11.7144 20.3092 6.83481 2.69935 -59.3814 21.0781 1.4082 2.83954 9.44832 -13.2333 4.45711 15.5651 -13.3568 2.7218 
-183.615 80.4535 -158.84 62.5569 -25.0044 67.6826 -170.306 40.9922 88.6568 -79.2284 13.4024 -1.05379 53.285 -1.87621 8.24361 45.49 19.9302 6.65078 174.216 18.8678 91.0059 -51.6006 -2.06179 0.675742 76.1862 -6.97885 -3.29322 71.5917 6.49532 11.7222 0.815548 8.01568 -90.0665 10.8447 1.59321 -0.281855 -0.825277 1.57928 -0.351728 -23.3683 1.60425 0.210135 -3.35565 1.60424 0.210127 87.7428 -43.6535 -106.117 18.804 -8.25897 -4.89115 -15.6447 8.39197 -111.772 -28.5792 -1.9847 3.16903 -97.4589 -39.0557 63.6426 -46.8584 11.5069 29.7979 6.0868 1.81343 -61.162 18.8199 1.08219 1.89416 9.24913 -13.8441 2.05359 16.9927 -13.2873 3.27973 
